<svg width="456" height="456" viewBox="0 0 456 456" fill="none" xmlns="http://www.w3.org/2000/svg">
<rect width="456" height="456" fill="#512BD4"/>
<path d="M144.836 179.781C144.836 173.938 146.43 169.141 149.617 165.391C152.836 161.641 157.133 159.766 162.508 159.766C164.602 159.766 166.539 160.125 168.32 160.844C170.102 161.531 171.555 162.438 172.68 163.562C173.836 164.688 174.758 165.734 175.445 166.703C176.133 167.672 176.664 168.625 177.039 169.562L170.336 171.672C169.836 170.922 169.414 170.328 169.07 169.891C168.727 169.453 168.227 168.922 167.57 168.297C166.914 167.672 166.164 167.219 165.32 166.938C164.508 166.625 163.586 166.469 162.555 166.469C159.523 166.469 157.148 167.672 155.43 170.078C153.711 172.484 152.852 175.719 152.852 179.781C152.852 183.844 153.742 187.094 155.523 189.531C157.305 191.969 159.555 193.188 162.273 193.188C164.555 193.188 166.367 192.594 167.711 191.406C169.086 190.219 169.914 188.625 170.195 186.625C170.32 185.812 170.383 184.859 170.383 183.766H161.852V177.109H177.93V199H172.633L171.93 196.094C169.836 198.594 166.523 199.844 161.992 199.844C157.148 199.844 153.07 198.031 149.758 194.406C146.477 190.75 144.836 185.875 144.836 179.781ZM181.539 184.797C181.539 180.203 182.82 176.578 185.383 173.922C187.945 171.266 191.117 169.938 194.898 169.938C198.555 169.938 201.648 171.312 204.18 174.062C206.742 176.781 208.023 180.359 208.023 184.797C208.023 185.703 207.977 186.609 207.883 187.516H189.133C189.133 189.297 189.695 190.812 190.82 192.062C191.945 193.281 193.461 193.891 195.367 193.891C196.773 193.891 197.992 193.547 199.023 192.859C200.086 192.141 200.883 191.234 201.414 190.141L207.648 192.344C206.711 194.438 205.18 196.219 203.055 197.688C200.93 199.125 198.289 199.844 195.133 199.844C191.164 199.844 187.898 198.484 185.336 195.766C182.805 193.047 181.539 189.391 181.539 184.797ZM189.18 182.406H200.383C200.383 180.594 199.898 179.047 198.93 177.766C197.992 176.453 196.648 175.797 194.898 175.797C193.117 175.797 191.711 176.453 190.68 177.766C189.68 179.078 189.18 180.625 189.18 182.406ZM218.477 184.891C218.477 187.984 219.055 190.188 220.211 191.5C221.367 192.812 222.648 193.469 224.055 193.469C224.648 193.469 225.227 193.344 225.789 193.094C226.383 192.812 226.977 192.391 227.57 191.828C228.164 191.234 228.648 190.344 229.023 189.156C229.398 187.938 229.586 186.516 229.586 184.891C229.586 183.234 229.398 181.812 229.023 180.625C228.68 179.438 228.195 178.547 227.57 177.953C226.977 177.359 226.383 176.938 225.789 176.688C225.227 176.438 224.648 176.312 224.055 176.312C222.648 176.312 221.367 176.969 220.211 178.281C219.055 179.562 218.477 181.766 218.477 184.891ZM210.789 184.891C210.789 182.953 211.039 181.125 211.539 179.406C212.039 177.656 212.789 176.062 213.789 174.625C214.82 173.188 216.211 172.047 217.961 171.203C219.742 170.359 221.773 169.938 224.055 169.938C226.336 169.938 228.352 170.359 230.102 171.203C231.852 172.047 233.227 173.188 234.227 174.625C235.258 176.062 236.023 177.656 236.523 179.406C237.023 181.125 237.273 182.953 237.273 184.891C237.273 186.141 237.164 187.391 236.945 188.641C236.727 189.859 236.305 191.172 235.68 192.578C235.086 193.953 234.32 195.172 233.383 196.234C232.445 197.266 231.164 198.125 229.539 198.812C227.945 199.5 226.117 199.844 224.055 199.844C222.023 199.844 220.211 199.516 218.617 198.859C217.023 198.203 215.742 197.375 214.773 196.375C213.805 195.344 213.008 194.156 212.383 192.812C211.789 191.438 211.367 190.109 211.117 188.828C210.898 187.547 210.789 186.234 210.789 184.891ZM242.055 199V159.438H249.555V199H242.055ZM261.883 190.656C261.883 191.5 262.211 192.219 262.867 192.812C263.523 193.375 264.367 193.656 265.398 193.656C267.055 193.656 268.461 193.094 269.617 191.969C270.773 190.844 271.352 189.344 271.352 187.469V185.594C269.539 186.031 268.102 186.328 267.039 186.484C263.602 186.984 261.883 188.375 261.883 190.656ZM254.289 191.312C254.289 188.75 255.273 186.625 257.242 184.938C259.211 183.25 262.102 182.125 265.914 181.562C269.039 181.062 270.852 180.734 271.352 180.578V179.125C271.352 177.969 270.945 177.125 270.133 176.594C269.352 176.031 268.32 175.75 267.039 175.75C264.102 175.75 261.57 176.906 259.445 179.219L255.039 175.422C258.102 171.766 262.07 169.938 266.945 169.938C271.258 169.938 274.32 170.969 276.133 173.031C277.945 175.094 278.852 178.016 278.852 181.797V199H271.586V196.094C271.023 197.156 270.086 198.047 268.773 198.766C267.461 199.484 265.961 199.844 264.273 199.844C261.211 199.844 258.773 199.062 256.961 197.5C255.18 195.906 254.289 193.844 254.289 191.312ZM284.523 199V159.438H291.93V172.797C293.773 170.891 295.93 169.938 298.398 169.938C301.836 169.938 304.695 171.266 306.977 173.922C309.289 176.547 310.445 180.188 310.445 184.844C310.445 187.469 310.07 189.797 309.32 191.828C308.602 193.828 307.648 195.391 306.461 196.516C305.273 197.641 304.008 198.469 302.664 199C301.32 199.562 299.945 199.844 298.539 199.844C297.07 199.844 295.711 199.484 294.461 198.766C293.211 198.047 292.305 197.203 291.742 196.234V199H284.523ZM291.883 184.844C291.883 187.531 292.352 189.641 293.289 191.172C294.258 192.703 295.602 193.469 297.32 193.469C298.914 193.469 300.211 192.75 301.211 191.312C302.211 189.875 302.711 187.719 302.711 184.844C302.711 182.188 302.242 180.109 301.305 178.609C300.367 177.078 299.039 176.312 297.32 176.312C295.508 176.312 294.148 177.094 293.242 178.656C292.336 180.219 291.883 182.281 291.883 184.844ZM102.859 259V220.609H117.719C122.031 220.609 125.234 221.531 127.328 223.375C129.422 225.188 130.469 227.703 130.469 230.922C130.469 232.641 130.062 234.172 129.25 235.516C128.469 236.828 127.438 237.859 126.156 238.609C127.594 239.203 128.891 240.281 130.047 241.844C131.203 243.375 131.781 245.281 131.781 247.562C131.781 250.906 130.703 253.656 128.547 255.812C126.391 257.938 123.406 259 119.594 259H102.859ZM110.641 252.344H118.469C119.844 252.344 121.047 251.938 122.078 251.125C123.141 250.312 123.672 249.125 123.672 247.562C123.672 246.125 123.203 244.938 122.266 244C121.359 243.031 120.031 242.547 118.281 242.547H110.641V252.344ZM110.641 235.984H117.109C118.703 235.984 119.969 235.609 120.906 234.859C121.875 234.109 122.359 233 122.359 231.531C122.359 228.719 120.656 227.312 117.25 227.312H110.641V235.984ZM136.141 248.594V230.781H143.641V247.797C143.641 251.578 144.906 253.469 147.438 253.469C148.938 253.469 150.109 252.781 150.953 251.406C151.828 250 152.266 248.344 152.266 246.438V230.781H159.766V259H152.594V256.469H152.453C151.922 257.406 151.062 258.203 149.875 258.859C148.688 259.516 147.328 259.844 145.797 259.844C144.984 259.844 144.188 259.766 143.406 259.609C142.656 259.484 141.812 259.188 140.875 258.719C139.969 258.219 139.172 257.578 138.484 256.797C137.828 256.016 137.266 254.922 136.797 253.516C136.359 252.078 136.141 250.438 136.141 248.594ZM165.578 259V230.781H172.75V233.172C173.344 232.297 174.188 231.547 175.281 230.922C176.406 230.266 177.656 229.938 179.031 229.938C180.656 229.938 181.812 230.109 182.5 230.453V237.297C181.406 236.953 180.25 236.781 179.031 236.781C177.031 236.781 175.531 237.562 174.531 239.125C173.562 240.688 173.078 242.781 173.078 245.406V259H165.578ZM183.672 237.109V230.781H187.703V222.766H195.109V230.781H200.969V237.109H195.109V249.531C195.109 251.594 196.016 252.625 197.828 252.625H201.016V259H196.891C190.766 259 187.703 255.984 187.703 249.953V237.109H183.672ZM205.562 227.781V220.094H213.109V227.781H205.562ZM205.656 259V230.781H213.062V259H205.656ZM219.484 259V219.438H226.891V240.25L235.562 230.781H244.797L234.203 242.359L245.172 259H236.5L229.375 247.609L226.891 250.328V259H219.484ZM259.891 259V220.609H275.219C279.406 220.609 282.656 221.719 284.969 223.938C287.281 226.125 288.438 229.031 288.438 232.656C288.438 236.375 287.234 239.328 284.828 241.516C282.453 243.672 279.312 244.75 275.406 244.75H267.672V259H259.891ZM267.672 238.047H274.328C276.234 238.047 277.719 237.578 278.781 236.641C279.844 235.703 280.375 234.375 280.375 232.656C280.375 229.094 278.375 227.312 274.375 227.312H267.672V238.047ZM291.531 239.828C291.531 233.797 293.062 228.953 296.125 225.297C299.219 221.609 303.281 219.766 308.312 219.766C313.344 219.766 317.391 221.609 320.453 225.297C323.547 228.953 325.094 233.797 325.094 239.828C325.094 245.859 323.547 250.703 320.453 254.359C317.391 258.016 313.344 259.844 308.312 259.844C303.25 259.844 299.188 258.016 296.125 254.359C293.062 250.703 291.531 245.859 291.531 239.828ZM299.594 239.828C299.594 243.984 300.359 247.25 301.891 249.625C303.422 252 305.562 253.188 308.312 253.188C311.062 253.188 313.203 252 314.734 249.625C316.266 247.219 317.031 243.953 317.031 239.828C317.031 235.734 316.266 232.484 314.734 230.078C313.203 227.672 311.062 226.469 308.312 226.469C305.562 226.469 303.422 227.672 301.891 230.078C300.359 232.484 299.594 235.734 299.594 239.828ZM337.375 230.969C337.375 232.406 337.734 233.578 338.453 234.484C339.203 235.391 340.172 235.844 341.359 235.844C342.547 235.844 343.484 235.391 344.172 234.484C344.891 233.547 345.25 232.375 345.25 230.969C345.25 229.625 344.906 228.5 344.219 227.594C343.531 226.656 342.578 226.188 341.359 226.188C340.141 226.188 339.172 226.641 338.453 227.547C337.734 228.453 337.375 229.594 337.375 230.969ZM328.234 248.266C328.234 246.547 328.625 245 329.406 243.625C330.188 242.219 330.984 241.203 331.797 240.578C332.609 239.922 333.5 239.359 334.469 238.891C331.062 236.797 329.359 234.047 329.359 230.641C329.359 227.453 330.5 224.844 332.781 222.812C335.094 220.781 337.953 219.766 341.359 219.766C344.797 219.766 347.641 220.797 349.891 222.859C352.172 224.891 353.312 227.484 353.312 230.641C353.312 234.047 351.594 236.797 348.156 238.891C349.906 239.703 351.391 240.891 352.609 242.453C353.859 243.984 354.484 245.922 354.484 248.266C354.484 251.734 353.266 254.531 350.828 256.656C348.391 258.781 345.234 259.844 341.359 259.844C337.734 259.844 334.641 258.844 332.078 256.844C329.516 254.812 328.234 251.953 328.234 248.266ZM336.25 247.844C336.25 249.438 336.719 250.781 337.656 251.875C338.594 252.938 339.828 253.469 341.359 253.469C342.859 253.469 344.062 252.938 344.969 251.875C345.906 250.781 346.375 249.438 346.375 247.844C346.375 246.375 345.922 245.062 345.016 243.906C344.109 242.75 342.891 242.172 341.359 242.172C339.828 242.172 338.594 242.734 337.656 243.859C336.719 244.984 336.25 246.312 336.25 247.844Z" fill="#1E1E1E"/>
</svg>
